HIERARCHY
ROOT Hips
{
	OFFSET 0.000000 0.000000 0.000000
	CHANNELS 6 Xposition Yposition Zposition Zrotation Yrotation Xrotation 
	JOINT LHipJoint
	{
		OFFSET 0.000000 0.000000 0.000000
		CHANNELS 3 Zrotation Yrotation Xrotation
		JOINT LeftUpLeg
		{
			OFFSET 1.363060 -1.794630 0.839290
			CHANNELS 3 Zrotation Yrotation Xrotation
			JOINT LeftLeg
			{
				OFFSET 2.448110 -6.726130 0.000000
				CHANNELS 3 Zrotation Yrotation Xrotation
				JOINT LeftFoot
				{
					OFFSET 2.562200 -7.039590 0.000000
					CHANNELS 3 Zrotation Yrotation Xrotation
					JOINT LeftToeBase
					{
						OFFSET 0.157640 -0.433110 2.322550
						CHANNELS 3 Zrotation Yrotation Xrotation
						End Site
						{
							OFFSET 0.000000 0.000000 0.000000
						}
					}
				}
			}
		}
	}
	JOINT RHipJoint
	{
		OFFSET 0.000000 0.000000 0.000000
		CHANNELS 3 Zrotation Yrotation Xrotation
		JOINT RightUpLeg
		{
			OFFSET -1.305520 -1.794630 0.839290
			CHANNELS 3 Zrotation Yrotation Xrotation
			JOINT RightLeg
			{
				OFFSET -2.542530 -6.985550 0.000000
				CHANNELS 3 Zrotation Yrotation Xrotation
				JOINT RightFoot
				{
					OFFSET -2.568260 -7.056230 0.000000
					CHANNELS 3 Zrotation Yrotation Xrotation
					JOINT RightToeBase
					{
						OFFSET -0.164730 -0.452590 2.363150
						CHANNELS 3 Zrotation Yrotation Xrotation
						End Site
						{
							OFFSET 0.000000 0.000000 0.000000
						}
					}
				}
			}
		}
	}
	JOINT LowerBack
	{
		OFFSET 0.000000 0.000000 0.000000
		CHANNELS 3 Zrotation Yrotation Xrotation
		JOINT Spine
		{
			OFFSET 0.028270 2.035590 -0.193380
			CHANNELS 3 Zrotation Yrotation Xrotation
			JOINT Spine1
			{
				OFFSET 0.056720 2.048850 -0.042750
				CHANNELS 3 Zrotation Yrotation Xrotation
				JOINT Neck
				{
					OFFSET 0.000000 0.000000 0.000000
					CHANNELS 3 Zrotation Yrotation Xrotation
					JOINT Neck1
					{
						OFFSET -0.054170 1.746240 0.172020
						CHANNELS 3 Zrotation Yrotation Xrotation
						JOINT Head
						{
							OFFSET 0.104070 1.761360 -0.123970
							CHANNELS 3 Zrotation Yrotation Xrotation
							End Site
							{
								OFFSET 0.000000 0.000000 0.000000
							}
						}
					}
				}
				JOINT LeftShoulder
				{
					OFFSET 0.000000 0.000000 0.000000
					CHANNELS 3 Zrotation Yrotation Xrotation
					JOINT LeftArm
					{
						OFFSET 3.362410 1.200890 -0.311210
						CHANNELS 3 Zrotation Yrotation Xrotation
						JOINT LeftForeArm
						{
							OFFSET 4.983000 -0.000000 -0.000000
							CHANNELS 3 Zrotation Yrotation Xrotation
							JOINT LeftHand
							{
								OFFSET 3.483560 -0.000000 -0.000000
								CHANNELS 3 Zrotation Yrotation Xrotation
								JOINT LeftFingerBase
								{
									OFFSET 0.000000 0.000000 0.000000
									CHANNELS 3 Zrotation Yrotation Xrotation
									JOINT LeftHandIndex1
									{
										OFFSET 0.715260 -0.000000 -0.000000
										CHANNELS 3 Zrotation Yrotation Xrotation
										End Site
										{
											OFFSET 0.000000 0.000000 0.000000
										}
									}
								}
								JOINT LThumb
								{
									OFFSET 0.000000 0.000000 0.000000
									CHANNELS 3 Zrotation Yrotation Xrotation
									End Site
									{
										OFFSET 0.000000 0.000000 0.000000
									}
								}
							}
						}
					}
				}
				JOINT RightShoulder
				{
					OFFSET 0.000000 0.000000 0.000000
					CHANNELS 3 Zrotation Yrotation Xrotation
					JOINT RightArm
					{
						OFFSET -3.136600 1.374050 -0.404650
						CHANNELS 3 Zrotation Yrotation Xrotation
						JOINT RightForeArm
						{
							OFFSET -5.241900 -0.000000 -0.000000
							CHANNELS 3 Zrotation Yrotation Xrotation
							JOINT RightHand
							{
								OFFSET -3.444170 -0.000000 -0.000000
								CHANNELS 3 Zrotation Yrotation Xrotation
								JOINT RightFingerBase
								{
									OFFSET 0.000000 0.000000 0.000000
									CHANNELS 3 Zrotation Yrotation Xrotation
									JOINT RightHandIndex1
									{
										OFFSET -0.622530 -0.000000 -0.000000
										CHANNELS 3 Zrotation Yrotation Xrotation
										End Site
										{
											OFFSET 0.000000 0.000000 0.000000
										}
									}
								}
								JOINT RThumb
								{
									OFFSET 0.000000 0.000000 0.000000
									CHANNELS 3 Zrotation Yrotation Xrotation
									End Site
									{
										OFFSET 0.000000 0.000000 0.000000
									}
								}
							}
						}
					}
				}
			}
		}
	}
}
MOTION
Frames: 7
Frame Time: 0.008333
-14.407341 15.816316 0.237737 -20.823225 89.190957 0.045677 -11.375540 1.190850 -4.650227 -3.876193 7.791884 -13.670389 -1.378574 2.621159 45.952568 2.230073 12.131917 -18.690511 -2.545100 -0.000000 -59.680599 8.482530 1.546520 -3.685236 15.588112 -5.151568 -58.818441 2.009151 -5.145031 54.245473 -0.517084 1.281754 -14.125035 0.081000 -0.000000 -19.252400 7.770257 -3.261410 11.175118 1.038184 -3.036810 -0.752828 -5.271851 -2.990415 -0.320271 6.526697 -12.356823 -8.897053 -3.034087 -0.189768 -0.706496 0.000000 0.000000 0.000000 2.867300 7.225961 1.540889 -60.090034 3.943471 5.472037 -179.878197 -89.083726 179.989274 1.326070 4.698682 0.056184 -0.089934 0.239299 0.000000 0.000000 0.000000 0.000000 0.000000 0.000000 0.000000 10.368745 -8.621711 1.764021 68.051377 -16.032742 7.750456 1.368267 63.660920 0.005556 0.660311 2.779668 0.016216 0.052464 -0.154718 -0.000000 0.000000 0.000000 0.000000 0.000000 0.000000 0.000000 
-14.274273 15.813639 0.271199 -23.558144 89.239571 -2.626227 -11.439056 1.212914 -4.584482 -3.621162 7.713509 -13.890992 -1.224955 2.685471 46.855906 2.156563 12.083436 -17.308368 -2.213500 0.000000 -61.324100 8.492738 1.436018 -3.692764 15.736401 -5.237523 -58.593984 2.011521 -5.191620 54.778630 -0.527383 1.383212 -14.761208 0.088000 0.000000 -19.792900 8.007502 -3.304298 11.073161 1.098304 -3.078450 -0.776183 -5.251181 -3.036069 -0.319479 6.570664 -12.305438 -8.885610 -3.029216 -0.189694 -0.701316 0.000000 0.000000 0.000000 2.819137 7.166160 1.561922 -60.625313 4.345617 5.459509 -179.925848 -89.816966 179.989723 1.274009 4.691748 0.054077 -0.087877 0.236368 0.000000 0.000000 0.000000 0.000000 0.000000 0.000000 0.000000 10.395641 -8.596048 1.747096 67.734463 -15.699214 7.559060 1.367266 63.676912 0.005218 0.460333 2.809365 0.011124 0.055478 -0.156227 -0.000000 0.000000 0.000000 0.000000 0.000000 0.000000 0.000000 
-14.143818 15.812960 0.304626 -24.096325 89.231942 -3.066339 -11.494655 1.261121 -4.512991 -3.423723 7.623521 -14.238867 -1.074886 2.770957 47.844564 2.094494 12.086565 -15.835550 -1.874700 -0.000000 -62.634000 8.516013 1.370319 -3.699269 15.856971 -5.302624 -58.380474 2.006237 -5.218122 55.253348 -0.534052 1.487900 -15.313223 0.091601 0.000000 -20.132900 8.206355 -3.321479 10.965811 1.144916 -3.100711 -0.800511 -5.235012 -3.062770 -0.320712 6.620322 -12.240099 -8.875287 -3.024246 -0.189577 -0.696654 0.000000 0.000000 0.000000 2.777918 7.102715 1.582444 -61.170557 4.749451 5.438192 0.025742 -89.433867 -0.009879 1.235802 4.675153 0.052269 -0.085767 0.233578 0.000000 0.000000 0.000000 0.000000 0.000000 0.000000 0.000000 10.425207 -8.547649 1.736142 67.476583 -15.319841 7.290488 1.367716 63.634796 0.004835 0.238153 2.840287 0.005333 0.058790 -0.158110 -0.000000 0.000000 0.000000 0.000000 0.000000 0.000000 0.000000 
-14.016223 15.814163 0.337634 -23.252634 89.184624 -2.097731 -11.542116 1.324086 -4.441801 -3.274448 7.535326 -14.697932 -0.925735 2.870723 48.910493 2.046223 12.142240 -14.293097 -1.531799 0.000000 -63.447400 8.549605 1.337080 -3.704696 15.957885 -5.351234 -58.176181 1.997058 -5.229783 55.673945 -0.538523 1.592922 -15.803625 0.092400 -0.000000 -20.287100 8.379888 -3.319112 10.860069 1.182437 -3.107054 -0.824845 -5.222554 -3.073847 -0.325870 6.672093 -12.156454 -8.864964 -3.019188 -0.189422 -0.692398 0.000000 0.000000 0.000000 2.739176 7.033472 1.604022 -61.723214 5.151624 5.411821 -0.022750 -88.672654 -0.009526 1.210314 4.646852 0.050959 -0.083639 0.230981 0.000000 0.000000 0.000000 0.000000 0.000000 0.000000 0.000000 10.452267 -8.472520 1.731139 67.277444 -14.905961 6.944203 1.368597 63.550251 0.004399 0.002391 2.863813 -0.000957 0.062218 -0.160290 -0.000000 0.000000 0.000000 0.000000 0.000000 0.000000 0.000000 
-13.891707 15.817169 0.369939 -21.060725 89.080885 0.239473 -11.585018 1.401080 -4.376275 -3.171983 7.468982 -15.251908 -0.781675 2.984700 50.037741 2.014300 12.254650 -12.717726 -1.190300 0.000000 -63.594100 8.589443 1.336620 -3.711466 16.042585 -5.377899 -57.972764 1.984443 -5.224740 56.045312 -0.542448 1.696002 -16.257474 0.091800 -0.000000 -20.282300 8.524301 -3.293239 10.765329 1.209943 -3.093326 -0.847512 -5.212892 -3.065146 -0.335934 6.722901 -12.051318 -8.853979 -3.013667 -0.189190 -0.688565 0.000000 0.000000 0.000000 2.699342 6.963377 1.627058 -62.279234 5.547918 5.384026 -0.070797 -87.902421 -0.009207 1.195264 4.607491 0.049848 -0.081474 0.228523 0.000000 0.000000 0.000000 0.000000 0.000000 0.000000 0.000000 10.471908 -8.364599 1.732105 67.135536 -14.463879 6.526752 1.369297 63.434597 0.003911 -0.240961 2.875563 -0.007448 0.065653 -0.162748 -0.000000 0.000000 0.000000 0.000000 0.000000 0.000000 0.000000 
-13.770418 15.821860 0.401428 -17.285117 88.892669 4.173046 -11.633464 1.494816 -4.321532 -3.122577 7.446608 -15.881129 -0.649805 3.115705 51.205317 2.000993 12.430185 -11.161228 -0.858201 -0.000000 -62.913401 8.626397 1.372594 -3.723225 16.107376 -5.374473 -57.757871 1.966587 -5.197641 56.372996 -0.547362 1.794992 -16.694943 0.090500 -0.000000 -20.188300 8.619601 -3.237050 10.692141 1.222716 -3.053653 -0.866154 -5.204415 -3.030760 -0.349859 6.770956 -11.926286 -8.843347 -3.006722 -0.188767 -0.685631 0.000000 0.000000 0.000000 2.655965 6.904496 1.651004 -62.834263 5.928865 5.361086 -0.118024 -87.123687 -0.008914 1.188453 4.559074 0.048934 -0.079271 0.226110 0.000000 0.000000 0.000000 0.000000 0.000000 0.000000 0.000000 10.480019 -8.222493 1.738474 67.047228 -13.991185 6.055086 1.369446 63.293902 0.003367 -0.490250 2.874041 -0.014138 0.069050 -0.165479 -0.000000 0.000000 0.000000 0.000000 0.000000 0.000000 0.000000 
-13.652305 15.828157 0.431808 -13.102731 88.660368 8.519001 -11.700171 1.581659 -4.281446 -3.115424 7.475453 -16.570004 -0.525598 3.251045 52.404643 2.005899 12.663763 -9.683460 -0.543600 0.000000 -61.306300 8.644207 1.415041 -3.735511 16.156912 -5.347739 -57.530424 1.949482 -5.156714 56.652777 -0.555977 1.883194 -17.141211 0.090299 0.000000 -19.992100 8.670951 -3.165152 10.639059 1.224649 -2.999848 -0.882028 -5.195808 -2.982348 -0.370076 6.814371 -11.773332 -8.828050 -2.999588 -0.188320 -0.682189 0.000000 0.000000 0.000000 2.607936 6.844079 1.677459 -63.388787 6.302977 5.343473 -0.163838 -86.341506 -0.008648 1.188716 4.502594 0.048318 -0.077095 0.223732 0.000000 0.000000 0.000000 0.000000 0.000000 0.000000 0.000000 10.477866 -8.043738 1.748766 67.004555 -13.505685 5.529552 1.367883 63.146659 0.002770 -0.735492 2.852354 -0.020631 0.072192 -0.168374 -0.000000 0.000000 0.000000 0.000000 0.000000 0.000000 0.000000 
